<svg xmlns="http://www.w3.org/2000/svg" xmlns:xlink="http://www.w3.org/1999/xlink" version="1.1" width="256" height="256" viewBox="0 0 256 256" xml:space="preserve">

<defs>
</defs>
<g style="stroke: none; stroke-width: 0; stroke-dasharray: none; stroke-linecap: butt; stroke-linejoin: miter; stroke-miterlimit: 10; fill: none; fill-rule: nonzero; opacity: 1;" transform="translate(1.4065934065934016 1.4065934065934016) scale(2.81 2.81)" >
	<path d="M 82.755 80.581 c -1.081 0 -2.148 -0.281 -3.112 -0.832 L 32.126 52.61 l 6.243 -10.931 l 47.518 27.138 c 1.46 0.834 2.508 2.187 2.95 3.809 c 0.443 1.622 0.228 3.319 -0.606 4.779 s -2.187 2.508 -3.809 2.95 C 83.871 80.506 83.311 80.581 82.755 80.581 z M 34.854 51.866 l 45.78 26.146 c 2.057 1.175 4.685 0.458 5.859 -1.6 c 1.175 -2.057 0.457 -4.685 -1.6 -5.859 l -45.78 -26.146 L 34.854 51.866 z" style="stroke: none; stroke-width: 1; stroke-dasharray: none; stroke-linecap: butt; stroke-linejoin: miter; stroke-miterlimit: 10; fill: rgb(0,0,0); fill-rule: nonzero; opacity: 1;" transform=" matrix(1 0 0 1 0 0) " stroke-linecap="round" />
	<path d="M 22.182 67.383 c -1.125 0 -2.235 -0.292 -3.238 -0.865 L 9.894 61.35 c -1.519 -0.868 -2.609 -2.275 -3.07 -3.963 c -0.461 -1.688 -0.237 -3.455 0.631 -4.974 c 0.274 -0.479 0.885 -0.647 1.364 -0.372 c 0.755 0.432 1.724 0.167 2.156 -0.589 l 0.811 -1.419 c 0.432 -0.757 0.168 -1.724 -0.589 -2.156 c -0.479 -0.273 -0.646 -0.885 -0.372 -1.364 l 11.47 -20.083 c 0.274 -0.479 0.885 -0.646 1.364 -0.372 c 0.755 0.431 1.723 0.168 2.156 -0.589 l 0.811 -1.419 c 0.432 -0.756 0.168 -1.724 -0.589 -2.156 c -0.479 -0.273 -0.646 -0.884 -0.373 -1.364 c 0.868 -1.519 2.275 -2.61 3.963 -3.07 c 1.688 -0.461 3.454 -0.237 4.974 0.631 l 9.05 5.168 c 3.135 1.791 4.23 5.8 2.439 8.936 c -0.273 0.48 -0.883 0.647 -1.364 0.373 c -0.757 -0.434 -1.725 -0.169 -2.157 0.588 l -0.81 1.418 c -0.21 0.367 -0.264 0.793 -0.153 1.2 c 0.111 0.407 0.374 0.747 0.741 0.956 c 0.23 0.132 0.399 0.349 0.469 0.605 s 0.035 0.529 -0.097 0.76 L 31.25 58.179 c -0.131 0.23 -0.349 0.398 -0.605 0.469 c -0.255 0.069 -0.529 0.034 -0.759 -0.097 c -0.757 -0.433 -1.724 -0.167 -2.156 0.589 l -0.81 1.419 c -0.21 0.366 -0.264 0.792 -0.153 1.199 s 0.374 0.746 0.741 0.956 c 0.23 0.131 0.399 0.349 0.469 0.604 c 0.07 0.256 0.035 0.529 -0.097 0.76 c -0.868 1.52 -2.275 2.61 -3.963 3.07 C 23.343 67.306 22.76 67.383 22.182 67.383 z M 8.843 54.168 c -0.301 0.86 -0.336 1.792 -0.09 2.691 c 0.32 1.173 1.078 2.15 2.133 2.754 l 9.049 5.168 c 1.055 0.603 2.282 0.757 3.455 0.438 c 0.899 -0.246 1.683 -0.748 2.272 -1.445 c -0.387 -0.417 -0.67 -0.925 -0.825 -1.489 c -0.252 -0.923 -0.129 -1.889 0.345 -2.719 l 0.81 -1.419 c 0.808 -1.413 2.439 -2.064 3.946 -1.706 L 40.557 37.85 c -0.416 -0.428 -0.719 -0.957 -0.88 -1.548 c -0.252 -0.922 -0.129 -1.888 0.345 -2.718 l 0.81 -1.418 c 0.794 -1.389 2.385 -2.043 3.868 -1.724 c 0.706 -2.029 -0.111 -4.342 -2.042 -5.445 l -9.05 -5.168 c -1.055 -0.603 -2.28 -0.758 -3.455 -0.438 c -0.899 0.245 -1.683 0.748 -2.272 1.445 c 0.387 0.417 0.671 0.925 0.825 1.49 c 0.251 0.922 0.129 1.888 -0.345 2.718 l -0.811 1.419 c -0.807 1.412 -2.436 2.066 -3.945 1.706 L 12.987 46.76 c 1.078 1.115 1.342 2.853 0.535 4.266 l -0.811 1.419 C 11.919 53.833 10.333 54.488 8.843 54.168 z" style="stroke: none; stroke-width: 1; stroke-dasharray: none; stroke-linecap: butt; stroke-linejoin: miter; stroke-miterlimit: 10; fill: rgb(0,0,0); fill-rule: nonzero; opacity: 1;" transform=" matrix(1 0 0 1 0 0) " stroke-linecap="round" />
	<path d="M 53.617 80.404 H 1 c -0.552 0 -1 -0.447 -1 -1 V 72.92 c 0 -3.554 2.891 -6.445 6.445 -6.445 h 41.727 c 3.554 0 6.445 2.892 6.445 6.445 v 6.484 C 54.617 79.957 54.17 80.404 53.617 80.404 z M 2 78.404 h 50.617 V 72.92 c 0 -2.451 -1.994 -4.445 -4.445 -4.445 H 6.445 C 3.994 68.475 2 70.469 2 72.92 V 78.404 z" style="stroke: none; stroke-width: 1; stroke-dasharray: none; stroke-linecap: butt; stroke-linejoin: miter; stroke-miterlimit: 10; fill: rgb(0,0,0); fill-rule: nonzero; opacity: 1;" transform=" matrix(1 0 0 1 0 0) " stroke-linecap="round" />
	<path d="M 71.522 50.229 c -1.039 0 -2.079 -0.268 -3.007 -0.803 L 56.054 42.23 c -1.855 -1.071 -3.008 -3.067 -3.008 -5.209 V 22.631 c 0 -2.142 1.152 -4.138 3.008 -5.208 l 12.462 -7.195 c 1.854 -1.07 4.158 -1.071 6.015 0 l 12.463 7.195 C 88.848 18.494 90 20.489 90 22.631 v 14.391 c 0 2.141 -1.152 4.137 -3.007 5.208 L 74.53 49.426 C 73.603 49.961 72.563 50.229 71.522 50.229 z M 71.523 11.423 c -0.694 0 -1.389 0.179 -2.008 0.536 l -12.462 7.195 c -1.238 0.714 -2.008 2.046 -2.008 3.476 v 14.391 c 0 1.429 0.77 2.762 2.008 3.477 l 12.462 7.195 c 1.239 0.716 2.777 0.714 4.015 0 l 12.463 -7.195 C 87.23 39.783 88 38.451 88 37.021 V 22.631 c 0 -1.429 -0.769 -2.761 -2.007 -3.476 L 73.53 11.959 C 72.911 11.602 72.217 11.423 71.523 11.423 z" style="stroke: none; stroke-width: 1; stroke-dasharray: none; stroke-linecap: butt; stroke-linejoin: miter; stroke-miterlimit: 10; fill: rgb(0,0,0); fill-rule: nonzero; opacity: 1;" transform=" matrix(1 0 0 1 0 0) " stroke-linecap="round" />
	<path d="M 64.606 35.287 c -0.34 0 -0.664 -0.173 -0.85 -0.473 l -3.688 -5.94 v 5.413 c 0 0.552 -0.447 1 -1 1 s -1 -0.448 -1 -1 v -8.92 c 0 -0.447 0.296 -0.839 0.726 -0.961 c 0.43 -0.126 0.889 0.055 1.124 0.434 l 3.688 5.94 v -5.413 c 0 -0.552 0.447 -1 1 -1 s 1 0.448 1 1 v 8.92 c 0 0.447 -0.296 0.839 -0.726 0.962 C 64.79 35.274 64.697 35.287 64.606 35.287 z" style="stroke: none; stroke-width: 1; stroke-dasharray: none; stroke-linecap: butt; stroke-linejoin: miter; stroke-miterlimit: 10; fill: rgb(0,0,0); fill-rule: nonzero; opacity: 1;" transform=" matrix(1 0 0 1 0 0) " stroke-linecap="round" />
	<path d="M 70.141 35.287 c -0.553 0 -1 -0.448 -1 -1 v -8.92 c 0 -0.552 0.447 -1 1 -1 h 3.955 c 0.553 0 1 0.448 1 1 s -0.447 1 -1 1 h -2.955 v 7.92 C 71.141 34.839 70.693 35.287 70.141 35.287 z" style="stroke: none; stroke-width: 1; stroke-dasharray: none; stroke-linecap: butt; stroke-linejoin: miter; stroke-miterlimit: 10; fill: rgb(0,0,0); fill-rule: nonzero; opacity: 1;" transform=" matrix(1 0 0 1 0 0) " stroke-linecap="round" />
	<path d="M 73.285 30.826 h -3.145 c -0.553 0 -1 -0.448 -1 -1 s 0.447 -1 1 -1 h 3.145 c 0.553 0 1 0.448 1 1 S 73.838 30.826 73.285 30.826 z" style="stroke: none; stroke-width: 1; stroke-dasharray: none; stroke-linecap: butt; stroke-linejoin: miter; stroke-miterlimit: 10; fill: rgb(0,0,0); fill-rule: nonzero; opacity: 1;" transform=" matrix(1 0 0 1 0 0) " stroke-linecap="round" />
	<path d="M 83.977 26.366 h -5.069 c -0.553 0 -1 -0.448 -1 -1 s 0.447 -1 1 -1 h 5.069 c 0.553 0 1 0.448 1 1 S 84.529 26.366 83.977 26.366 z" style="stroke: none; stroke-width: 1; stroke-dasharray: none; stroke-linecap: butt; stroke-linejoin: miter; stroke-miterlimit: 10; fill: rgb(0,0,0); fill-rule: nonzero; opacity: 1;" transform=" matrix(1 0 0 1 0 0) " stroke-linecap="round" />
	<path d="M 81.441 35.287 c -0.553 0 -1 -0.448 -1 -1 v -8.92 c 0 -0.552 0.447 -1 1 -1 s 1 0.448 1 1 v 8.92 C 82.441 34.839 81.994 35.287 81.441 35.287 z" style="stroke: none; stroke-width: 1; stroke-dasharray: none; stroke-linecap: butt; stroke-linejoin: miter; stroke-miterlimit: 10; fill: rgb(0,0,0); fill-rule: nonzero; opacity: 1;" transform=" matrix(1 0 0 1 0 0) " stroke-linecap="round" />
</g>
</svg>